<svg xmlns="http://www.w3.org/2000/svg" xmlns:xlink="http://www.w3.org/1999/xlink" width="500" zoomAndPan="magnify" viewBox="0 0 375 374.999991" height="500" preserveAspectRatio="xMidYMid meet" version="1.0"><path fill="#dfa408" d="M 369.535156 8.597656 C 364.105469 3.179688 355.308594 3.1875 349.886719 8.621094 L 190.179688 168.734375 L 25.757812 4.023438 C 23.246094 1.5 19.765625 -0.0625 15.917969 -0.0625 C 8.257812 -0.0625 2.035156 6.160156 2.035156 13.832031 C 2.035156 17.511719 3.496094 21.042969 6.089844 23.640625 L 170.5625 188.394531 L 4.140625 355.234375 C 1.617188 357.746094 0.0546875 361.214844 0.0546875 365.0625 C 0.0546875 370.679688 3.441406 375.746094 8.632812 377.890625 C 13.824219 380.039062 19.804688 378.851562 23.777344 374.871094 L 190.179688 208.050781 L 349.835938 367.988281 C 355.257812 373.410156 364.054688 373.421875 369.484375 368 C 374.902344 362.582031 374.914062 353.792969 369.492188 348.363281 L 209.792969 188.382812 L 369.554688 28.234375 C 374.976562 22.804688 374.964844 14.019531 369.535156 8.597656 " fill-opacity="1" fill-rule="nonzero"/></svg>