<svg xmlns="http://www.w3.org/2000/svg" xmlns:xlink="http://www.w3.org/1999/xlink" width="500" zoomAndPan="magnify" viewBox="0 0 375 374.999991" height="500" preserveAspectRatio="xMidYMid meet" version="1.0"><defs><clipPath id="ea1960b1be"><path d="M 0 64.21875 L 375 64.21875 L 375 97 L 0 97 Z M 0 64.21875 " clip-rule="nonzero"/></clipPath><clipPath id="0859126528"><path d="M 0 278 L 375 278 L 375 310.96875 L 0 310.96875 Z M 0 278 " clip-rule="nonzero"/></clipPath></defs><g clip-path="url(#ea1960b1be)"><path fill="#dfa408" d="M 374.992188 80.363281 C 374.992188 89.238281 367.796875 96.433594 358.921875 96.433594 L 16.078125 96.433594 C 7.203125 96.433594 0.0078125 89.238281 0.0078125 80.363281 C 0.0078125 71.488281 7.203125 64.292969 16.078125 64.292969 L 358.921875 64.292969 C 367.796875 64.292969 374.992188 71.488281 374.992188 80.363281 Z M 374.992188 80.363281 " fill-opacity="1" fill-rule="evenodd"/></g><path fill="#dfa408" d="M 374.992188 187.503906 C 374.992188 196.378906 367.796875 203.574219 358.921875 203.574219 L 16.078125 203.574219 C 7.203125 203.574219 0.0078125 196.378906 0.0078125 187.503906 C 0.0078125 178.625 7.203125 171.429688 16.078125 171.429688 L 358.921875 171.429688 C 367.796875 171.429688 374.992188 178.625 374.992188 187.503906 Z M 374.992188 187.503906 " fill-opacity="1" fill-rule="evenodd"/><g clip-path="url(#0859126528)"><path fill="#dfa408" d="M 374.992188 294.640625 C 374.992188 303.515625 367.796875 310.710938 358.921875 310.710938 L 16.078125 310.710938 C 7.203125 310.710938 0.0078125 303.515625 0.0078125 294.640625 C 0.0078125 285.765625 7.203125 278.570312 16.078125 278.570312 L 358.921875 278.570312 C 367.796875 278.570312 374.992188 285.765625 374.992188 294.640625 Z M 374.992188 294.640625 " fill-opacity="1" fill-rule="evenodd"/></g></svg>